<svg width="48" height="48" viewBox="0 0 48 48" fill="none" xmlns="http://www.w3.org/2000/svg">
<g id="vuesax/linear/glass">
<g id="glass">
<path id="Vector" d="M16.32 44C7.96001 44 6.28001 38.94 9.00001 32.78L17.5 13.48H16.9C15.6 13.48 14.4 12.96 13.54 12.1C12.66 11.24 12.14 10.04 12.14 8.74C12.14 6.14 14.26 4 16.88 4H31.1C32.42 4 33.6 4.54 34.46 5.4C35.58 6.52 36.14 8.16 35.72 9.9C35.18 12.06 33.1 13.48 30.88 13.48H30.56L39 32.8C41.7 38.96 39.94 44 31.66 44H16.32Z" stroke="#FFAD33" stroke-width="2" stroke-linecap="round" stroke-linejoin="round"/>
<path id="Vector_2" d="M11.88 26.2402C11.88 26.2402 18 26.0002 24 28.0002C30 30.0002 35.66 26.2202 35.66 26.2202" stroke="#FFAD33" stroke-width="2" stroke-linecap="round" stroke-linejoin="round"/>
</g>
</g>
</svg>
